<svg width="21" height="13" viewBox="0 0 21 13" fill="none" xmlns="http://www.w3.org/2000/svg">
<path d="M10.4862 13C9.77879 12.975 9.30063 12.6604 8.94037 12.2309C8.35086 11.5317 7.77445 10.8275 7.19149 10.1233C4.93825 7.39147 2.67845 4.66462 0.425211 1.93277C0.307308 1.78794 0.195957 1.62812 0.117355 1.46831C-0.249451 0.709181 0.268009 0.0898954 1.32913 0.0149819C1.52563 -8.51252e-07 1.72214 -8.42662e-07 1.91864 -8.34073e-07C7.6369 -5.8412e-07 13.3617 -3.3388e-07 19.08 -8.39271e-08C19.3813 -7.07566e-08 19.6957 0.00998842 19.9839 0.0699193C20.8027 0.219746 21.176 0.734153 20.9206 1.34844C20.8354 1.5582 20.7044 1.76796 20.5472 1.95275C17.7372 5.35882 14.9206 8.76489 12.1041 12.171C11.7307 12.6254 11.2526 12.975 10.4862 13Z" fill="#616A7F"/>
</svg>
