<svg width="22" height="24" viewBox="0 0 22 24" fill="none" xmlns="http://www.w3.org/2000/svg">
<path d="M3.69006 18.6302C3.05613 18.6302 2.56849 18.1543 2.66602 17.5813C2.92935 15.9302 3.22193 14.2792 3.52426 12.6378C3.54377 12.5213 3.65105 12.4047 3.73882 12.3076C7.77646 8.27711 11.8239 4.2466 15.8615 0.225806C16.1638 -0.0752686 16.2516 -0.0752686 16.5539 0.225806C18.0851 1.7506 19.6163 3.28511 21.1572 4.8099C21.4108 5.06242 21.3913 5.23724 21.1475 5.48004C17.1098 9.49112 13.0625 13.5216 9.01506 17.5424C8.90778 17.6493 8.76149 17.7561 8.6152 17.7755C7.03525 18.0572 5.44556 18.3291 3.86561 18.601C3.80709 18.6205 3.72907 18.6302 3.69006 18.6302ZM5.15297 16.1342C5.32852 16.1148 5.44555 16.105 5.56259 16.0759C6.17701 15.9691 6.79143 15.872 7.3961 15.7457C7.61067 15.6971 7.83498 15.6 7.99102 15.4446C11.3655 12.094 14.7399 8.74329 18.1046 5.38292C18.1826 5.30522 18.2607 5.2081 18.2802 5.18867C17.5585 4.46998 16.8563 3.77071 16.1443 3.06173C16.1638 3.04231 16.1443 3.06173 16.1248 3.07144C12.6723 6.51923 9.21987 9.96701 5.7674 13.4051C5.68937 13.4828 5.6016 13.5993 5.58209 13.7062C5.4358 14.4928 5.29926 15.2795 5.15297 16.1342Z" fill="white"/>
<path d="M9.61969 23.2902C6.87916 23.2902 4.13864 23.2902 1.39812 23.2902C0.413092 23.2902 -0.220836 22.4647 0.071746 21.5809C0.237543 21.0759 0.598394 20.7748 1.1348 20.6971C1.32985 20.668 1.52491 20.668 1.71996 20.668C6.9962 20.668 12.2724 20.668 17.5487 20.668C17.7437 20.668 17.9388 20.6777 18.1338 20.6971C18.797 20.7748 19.2749 21.3284 19.2749 21.9985C19.2652 22.6589 18.797 23.1834 18.1533 23.2708C18.0168 23.2902 17.89 23.2902 17.7535 23.2902C15.0227 23.2902 12.3212 23.2902 9.61969 23.2902Z" fill="white"/>
</svg>
