<svg width="15" height="16" viewBox="0 0 15 16" fill="none" xmlns="http://www.w3.org/2000/svg">
<path d="M3.41269 12.5871C2.99648 12.5871 2.67633 12.2746 2.74036 11.8984C2.91324 10.8144 3.10534 9.73043 3.30383 8.65281C3.31664 8.57629 3.38707 8.49977 3.4447 8.43601C6.0956 5.78979 8.75291 3.14357 11.4038 0.503721C11.6023 0.306051 11.6599 0.306051 11.8584 0.503721C12.8637 1.50482 13.869 2.5123 14.8807 3.5134C15.0472 3.67919 15.0344 3.79396 14.8743 3.95337C12.2234 6.58684 9.56611 9.23307 6.9088 11.8729C6.83837 11.9431 6.74232 12.0132 6.64627 12.0259C5.60897 12.2109 4.56525 12.3894 3.52794 12.5679C3.48952 12.5807 3.4383 12.5871 3.41269 12.5871ZM4.37316 10.9483C4.48842 10.9356 4.56525 10.9292 4.64209 10.9101C5.04549 10.8399 5.44889 10.7762 5.84588 10.6933C5.98675 10.6614 6.13402 10.5976 6.23647 10.4956C8.45196 8.29573 10.6674 6.09586 12.8765 3.88961C12.9278 3.8386 12.979 3.77483 12.9918 3.76208C12.518 3.29022 12.0569 2.83112 11.5895 2.36564C11.6023 2.35289 11.5895 2.36564 11.5767 2.37202C9.30998 4.63565 7.04327 6.89929 4.77656 9.15655C4.72533 9.20756 4.6677 9.28408 4.6549 9.35422C4.55885 9.87071 4.46921 10.3872 4.37316 10.9483Z" fill="#21409A"/>
<path d="M7.30577 15.6474C5.50649 15.6474 3.70721 15.6474 1.90792 15.6474C1.2612 15.6474 0.845001 15.1054 1.03709 14.5252C1.14595 14.1936 1.38286 13.9959 1.73504 13.9449C1.8631 13.9258 1.99116 13.9258 2.11923 13.9258C5.58333 13.9258 9.04743 13.9258 12.5115 13.9258C12.6396 13.9258 12.7677 13.9322 12.8957 13.9449C13.3311 13.9959 13.6449 14.3594 13.6449 14.7994C13.6385 15.233 13.3311 15.5773 12.9085 15.6347C12.8189 15.6474 12.7356 15.6474 12.646 15.6474C10.8531 15.6474 9.07944 15.6474 7.30577 15.6474Z" fill="#21409A"/>
</svg>
